<?xml version="1.0" encoding="utf-8"?>
<svg xmlns="http://www.w3.org/2000/svg" viewBox="0 0 3072 3072" width="1500" height="1500">
  <path d="M1149.00 1988.60 L1148.92 1935.31 A25.00 25.00 0 0 0 1149.00 1933.29 L1149.00 1519.00 L952.54 1394.12 A25.00 25.00 0 0 1 940.92 1372.84 L944.20 858.80 L1536.50 477.20 L2039.60 792.00 L2670.00 786.00 L1534.80 112.60 L575.70 661.30 L576.50 1643.10 Z M1082.35 927.25 L2150.58 1628.39 A25.00 25.00 0 0 1 2161.86 1648.89 L2167.99 2030.35 A25.00 25.00 0 0 1 2157.80 2050.89 L1238.20 2726.70 L1546.20 2943.60 L2525.60 2211.80 L2525.20 1356.20 L1813.10 919.30 Z M1282.00 1816.60 L1683.90 1515.50 L1282.00 1263.60 L1282.00 1369.10 Z M405.10 2153.75 L549.10 2264.10 L1091.00 2627.60 L1937.00 2003.45 L1614.60 1814.50 L1076.40 2150.40 Z" fill="#6b6b6b" stroke="#212121" stroke-width="24" stroke-linejoin="miter" stroke-linecap="round"/>
</svg>
